<svg xmlns="http://www.w3.org/2000/svg" xmlns:xlink="http://www.w3.org/1999/xlink" width="500" zoomAndPan="magnify" viewBox="0 0 375 374.999991" height="500" preserveAspectRatio="xMidYMid meet" version="1.0"><defs><g/><clipPath id="2bd322b1ca"><path d="M 148 128 L 224 128 L 224 203 L 148 203 Z M 148 128 " clip-rule="nonzero"/></clipPath><clipPath id="eccd80d94b"><path d="M 166.875 125.410156 L 228.5 146.375 L 208.078125 206.398438 L 146.453125 185.433594 Z M 166.875 125.410156 " clip-rule="nonzero"/></clipPath><clipPath id="badbb46f01"><path d="M 166.875 125.410156 L 228.5 146.375 L 208.078125 206.398438 L 146.453125 185.433594 Z M 166.875 125.410156 " clip-rule="nonzero"/></clipPath><clipPath id="6e9a6f727e"><path d="M 146 223 L 231 223 L 231 238.570312 L 146 238.570312 Z M 146 223 " clip-rule="nonzero"/></clipPath><clipPath id="3e660284c0"><path d="M 145 99 L 272.035156 99 L 272.035156 142 L 145 142 Z M 145 99 " clip-rule="nonzero"/></clipPath><clipPath id="3b9b6a1319"><path d="M 116 93.167969 L 203 93.167969 L 203 197 L 116 197 Z M 116 93.167969 " clip-rule="nonzero"/></clipPath></defs><g clip-path="url(#2bd322b1ca)"><g clip-path="url(#eccd80d94b)"><g clip-path="url(#badbb46f01)"><path fill="#7f8083" d="M 174.597656 128.035156 L 173.300781 129.316406 L 179.824219 136.695312 C 178.511719 140.550781 175.917969 143.109375 171.792969 143.855469 L 165.273438 136.476562 L 164.625 137.117188 C 164.585938 143.554688 167.128906 148.722656 174.839844 151.34375 C 176.765625 152 180.582031 159.75 182.617188 163.882812 L 190.882812 159.8125 C 188.847656 155.679688 184.269531 146.382812 184.925781 144.453125 C 187.285156 137.515625 186.933594 132.234375 174.597656 128.035156 Z M 222.125 146.359375 L 212.582031 149.132812 L 210.761719 151.953125 L 180.796875 166.703125 L 178.367188 163.726562 L 176.300781 164.746094 C 174.726562 169.371094 168.542969 169.847656 166.230469 169.0625 L 149.179688 177.453125 C 147.871094 181.308594 150.667969 186.992188 154.523438 188.304688 L 171.570312 179.910156 C 172.359375 177.597656 176.507812 172.988281 181.132812 174.5625 L 183.199219 173.542969 L 182.320312 169.804688 L 212.285156 155.054688 L 215.632812 155.332031 L 223.652344 149.457031 Z M 193.933594 166.011719 L 185.667969 170.082031 C 188.71875 176.28125 192.789062 184.546875 192.132812 186.476562 C 189.773438 193.414062 190.125 198.695312 202.460938 202.894531 L 203.757812 201.613281 L 197.234375 194.234375 C 198.546875 190.378906 201.136719 187.820312 205.261719 187.074219 L 211.785156 194.453125 L 212.433594 193.8125 C 212.472656 187.375 209.929688 182.207031 202.21875 179.585938 C 200.292969 178.929688 196.984375 172.214844 193.933594 166.011719 Z M 193.933594 166.011719 " fill-opacity="1" fill-rule="nonzero"/></g></g></g><g clip-path="url(#6e9a6f727e)"><path fill="#000000" d="M 204.894531 231.75 C 197.0625 231.75 189.574219 230.285156 182.675781 227.636719 C 182.710938 227.621094 182.746094 227.613281 182.78125 227.597656 C 177.175781 226.972656 171.792969 225.601562 166.742188 223.578125 C 161.636719 223.992188 156.589844 224.148438 151.664062 224.148438 C 149.835938 224.148438 148.035156 224.214844 146.269531 224.3125 C 150.949219 227.808594 156.070312 230.75 161.527344 233.050781 C 170.207031 236.707031 179.742188 238.726562 189.753906 238.726562 C 204.914062 238.726562 218.992188 234.089844 230.648438 226.15625 C 222.804688 229.746094 214.082031 231.75 204.894531 231.75 " fill-opacity="1" fill-rule="nonzero"/></g><g clip-path="url(#3e660284c0)"><path fill="#464646" d="M 259.585938 112.191406 C 249.433594 102.039062 234.6875 98.140625 218.320312 99.875 C 223.261719 104.191406 228.300781 109.214844 234.410156 114.246094 C 251.726562 117.128906 265.433594 125.59375 271.523438 139.027344 C 271.699219 139.414062 271.867188 139.804688 272.027344 140.195312 C 270.976562 129.21875 266.90625 119.511719 259.585938 112.191406 Z M 186.070312 109.765625 C 174.292969 115.652344 162.636719 123.988281 152.046875 134.574219 C 149.722656 136.898438 147.511719 139.273438 145.40625 141.691406 C 153.464844 134.816406 163.035156 128.6875 173.8125 123.800781 C 186.183594 118.191406 198.746094 114.855469 210.617188 113.652344 C 204.160156 111.066406 197.121094 109.640625 189.753906 109.640625 C 188.515625 109.640625 187.289062 109.683594 186.070312 109.765625 " fill-opacity="1" fill-rule="nonzero"/></g><path fill="#464646" d="M 105.855469 169.890625 C 106.3125 173.539062 107.289062 177.089844 108.828125 180.476562 C 121.1875 207.746094 164.9375 214.5625 206.539062 195.703125 C 222.0625 188.667969 235.085938 179.050781 244.683594 168.347656 C 239.429688 176.847656 232.898438 185.152344 225.167969 192.886719 C 189.289062 228.765625 141.140625 238.789062 117.625 215.269531 C 106.628906 204.273438 102.96875 187.890625 105.855469 169.890625 " fill-opacity="1" fill-rule="nonzero"/><path fill="#798391" d="M 135.335938 195.753906 C 135.484375 196.027344 135.636719 196.300781 135.789062 196.574219 C 135.632812 196.300781 135.484375 196.027344 135.335938 195.753906 " fill-opacity="1" fill-rule="nonzero"/><path fill="#798391" d="M 262.53125 165.949219 C 262.53125 130.199219 236.75 100.46875 202.765625 94.335938 C 200.5625 94.125 198.328125 94.003906 196.066406 94.003906 C 157.964844 94.003906 127.074219 124.894531 127.074219 162.996094 C 127.074219 171.714844 128.695312 180.050781 131.644531 187.730469 C 129.105469 180.953125 127.714844 173.613281 127.714844 165.949219 C 127.714844 131.6875 155.488281 103.910156 189.753906 103.910156 C 224.019531 103.910156 251.792969 131.6875 251.792969 165.949219 C 251.792969 200.214844 224.019531 227.992188 189.753906 227.992188 C 187.394531 227.992188 185.070312 227.855469 182.78125 227.597656 C 182.746094 227.613281 182.710938 227.621094 182.675781 227.636719 C 189.574219 230.285156 197.0625 231.75 204.894531 231.75 C 214.082031 231.75 222.804688 229.746094 230.648438 226.15625 C 249.890625 213.0625 262.53125 190.980469 262.53125 165.949219 " fill-opacity="1" fill-rule="nonzero"/><g clip-path="url(#3b9b6a1319)"><path fill="#0b0b0b" d="M 196.066406 94.003906 C 198.328125 94.003906 200.5625 94.125 202.765625 94.335938 C 198.542969 93.574219 194.195312 93.171875 189.753906 93.171875 C 149.558594 93.171875 116.976562 125.757812 116.976562 165.949219 C 116.976562 173.207031 118.042969 180.214844 120.019531 186.828125 C 124.101562 191.058594 129.484375 194.414062 135.890625 196.757812 C 135.855469 196.699219 135.824219 196.632812 135.789062 196.574219 C 135.636719 196.300781 135.484375 196.027344 135.335938 195.753906 C 133.925781 193.183594 132.6875 190.503906 131.644531 187.730469 C 128.695312 180.050781 127.074219 171.714844 127.074219 162.996094 C 127.074219 124.894531 157.964844 94.003906 196.066406 94.003906 " fill-opacity="1" fill-rule="nonzero"/></g><g fill="#000000" fill-opacity="1"><g transform="translate(140.373662, 273.037238)"><g><path d="M 6.21875 0 L 6.21875 -20.859375 L 2.90625 -20.859375 L 2.90625 0 Z M 6.21875 0 "/></g></g></g><g fill="#000000" fill-opacity="1"><g transform="translate(149.506221, 273.037238)"><g><path d="M 13.1875 0 L 9.875 0 L 9.875 -17.546875 L 0.4375 -17.546875 L 0.4375 -20.859375 L 22.640625 -20.859375 L 22.640625 -17.546875 L 13.1875 -17.546875 Z M 13.1875 0 "/></g></g></g><g fill="#000000" fill-opacity="1"><g transform="translate(172.58484, 273.037238)"><g><path d="M 22.0625 0 L 7.15625 0 C 5.78125 0 4.609375 -0.484375 3.640625 -1.453125 C 2.671875 -2.421875 2.1875 -3.59375 2.1875 -4.96875 L 5.5 -4.96875 C 5.5 -4.519531 5.660156 -4.128906 5.984375 -3.796875 C 6.304688 -3.472656 6.695312 -3.3125 7.15625 -3.3125 L 22.0625 -3.3125 C 22.519531 -3.3125 22.910156 -3.472656 23.234375 -3.796875 C 23.554688 -4.128906 23.71875 -4.519531 23.71875 -4.96875 L 23.71875 -7.109375 C 23.71875 -7.578125 23.554688 -7.96875 23.234375 -8.28125 C 22.910156 -8.601562 22.519531 -8.765625 22.0625 -8.765625 L 7.15625 -8.765625 C 5.78125 -8.765625 4.609375 -9.25 3.640625 -10.21875 C 2.671875 -11.195312 2.1875 -12.367188 2.1875 -13.734375 L 2.1875 -15.890625 C 2.1875 -17.253906 2.671875 -18.421875 3.640625 -19.390625 C 4.609375 -20.367188 5.78125 -20.859375 7.15625 -20.859375 L 22.0625 -20.859375 C 23.425781 -20.859375 24.59375 -20.367188 25.5625 -19.390625 C 26.539062 -18.421875 27.03125 -17.253906 27.03125 -15.890625 L 23.71875 -15.890625 C 23.71875 -16.347656 23.554688 -16.734375 23.234375 -17.046875 C 22.910156 -17.367188 22.519531 -17.53125 22.0625 -17.53125 L 7.15625 -17.53125 C 6.695312 -17.53125 6.304688 -17.367188 5.984375 -17.046875 C 5.660156 -16.734375 5.5 -16.347656 5.5 -15.890625 L 5.5 -13.734375 C 5.5 -13.285156 5.660156 -12.894531 5.984375 -12.5625 C 6.304688 -12.238281 6.695312 -12.078125 7.15625 -12.078125 L 22.0625 -12.078125 C 23.425781 -12.078125 24.59375 -11.59375 25.5625 -10.625 C 26.539062 -9.65625 27.03125 -8.484375 27.03125 -7.109375 L 27.03125 -4.96875 C 27.03125 -3.59375 26.539062 -2.421875 25.5625 -1.453125 C 24.59375 -0.484375 23.425781 0 22.0625 0 Z M 22.0625 0 "/></g></g></g><g fill="#000000" fill-opacity="1"><g transform="translate(201.800305, 273.037238)"><g><path d="M 31.59375 0 L 28.28125 0 L 28.28125 -14.09375 L 18.109375 0 L 16.40625 0 L 6.21875 -14.09375 L 6.21875 0 L 2.90625 0 L 2.90625 -20.859375 L 5.40625 -20.859375 L 17.265625 -4.484375 L 29.09375 -20.859375 L 31.59375 -20.859375 Z M 31.59375 0 "/></g></g></g></svg>