<svg xmlns="http://www.w3.org/2000/svg" xmlns:xlink="http://www.w3.org/1999/xlink" width="500" zoomAndPan="magnify" viewBox="0 0 375 374.999991" height="500" preserveAspectRatio="xMidYMid meet" version="1.0"><defs><clipPath id="458aed0164"><path d="M 111 112 L 259 112 L 259 261 L 111 261 Z M 111 112 " clip-rule="nonzero"/></clipPath><clipPath id="e0a9493be3"><path d="M 146.910156 107.667969 L 268.476562 149.027344 L 228.066406 267.800781 L 106.503906 226.441406 Z M 146.910156 107.667969 " clip-rule="nonzero"/></clipPath><clipPath id="c3a19012e5"><path d="M 146.910156 107.667969 L 268.476562 149.027344 L 228.066406 267.800781 L 106.503906 226.441406 Z M 146.910156 107.667969 " clip-rule="nonzero"/></clipPath><clipPath id="6b1bfb6c0f"><path d="M 106 300 L 273 300 L 273 330.554688 L 106 330.554688 Z M 106 300 " clip-rule="nonzero"/></clipPath><clipPath id="0cc7f9fa38"><path d="M 104 56 L 353.226562 56 L 353.226562 140 L 104 140 Z M 104 56 " clip-rule="nonzero"/></clipPath><clipPath id="d5fa3886e8"><path d="M 48 44.21875 L 218 44.21875 L 218 249 L 48 249 Z M 48 44.21875 " clip-rule="nonzero"/></clipPath></defs><g clip-path="url(#458aed0164)"><g clip-path="url(#e0a9493be3)"><g clip-path="url(#c3a19012e5)"><path fill="#7f8083" d="M 162.117188 112.839844 L 159.566406 115.359375 L 172.398438 129.882812 C 169.816406 137.46875 164.71875 142.503906 156.601562 143.972656 L 143.769531 129.453125 L 142.496094 130.710938 C 142.417969 143.378906 147.421875 153.546875 162.59375 158.707031 C 166.382812 159.996094 173.890625 175.246094 177.894531 183.378906 L 194.160156 175.371094 C 190.15625 167.238281 181.148438 148.941406 182.441406 145.148438 C 187.085938 131.492188 186.390625 121.101562 162.117188 112.839844 Z M 255.644531 148.894531 L 236.859375 154.351562 L 233.277344 159.90625 L 174.3125 188.933594 L 169.535156 183.074219 L 165.46875 185.078125 C 162.371094 194.179688 150.203125 195.117188 145.652344 193.570312 L 112.105469 210.085938 C 109.523438 217.671875 115.027344 228.851562 122.613281 231.433594 L 156.164062 214.917969 C 157.710938 210.367188 165.875 201.296875 174.976562 204.394531 L 179.042969 202.390625 L 177.316406 195.03125 L 236.28125 166.003906 L 242.867188 166.550781 L 258.648438 154.996094 Z M 200.167969 187.570312 L 183.902344 195.578125 C 189.90625 207.78125 197.914062 224.046875 196.625 227.839844 C 191.976562 241.492188 192.675781 251.886719 216.949219 260.144531 L 219.496094 257.625 L 206.664062 243.105469 C 209.246094 235.519531 214.34375 230.480469 222.460938 229.011719 L 235.292969 243.535156 L 236.570312 242.273438 C 236.648438 229.605469 231.644531 219.441406 216.472656 214.277344 C 212.679688 212.988281 206.171875 199.773438 200.167969 187.570312 Z M 200.167969 187.570312 " fill-opacity="1" fill-rule="nonzero"/></g></g></g><g clip-path="url(#6b1bfb6c0f)"><path fill="#000000" d="M 221.71875 316.925781 C 206.3125 316.925781 191.578125 314.046875 178.003906 308.832031 C 178 308.832031 178 308.832031 177.996094 308.832031 C 178.066406 308.804688 178.136719 308.785156 178.207031 308.757812 C 167.175781 307.523438 156.585938 304.824219 146.644531 300.847656 C 136.601562 301.664062 126.667969 301.96875 116.976562 301.96875 C 113.375 301.96875 109.832031 302.101562 106.355469 302.292969 C 115.570312 309.171875 125.644531 314.960938 136.382812 319.484375 C 153.464844 326.679688 172.230469 330.660156 191.925781 330.660156 C 221.765625 330.660156 249.464844 321.53125 272.402344 305.921875 C 256.96875 312.984375 239.804688 316.925781 221.71875 316.925781 " fill-opacity="1" fill-rule="nonzero"/></g><g clip-path="url(#0cc7f9fa38)"><path fill="#464646" d="M 329.347656 81.65625 C 309.371094 61.675781 280.351562 54.007812 248.140625 57.417969 C 257.867188 65.914062 267.78125 75.800781 279.804688 85.699219 C 313.878906 91.371094 340.851562 108.027344 352.839844 134.460938 C 353.183594 135.226562 353.511719 135.996094 353.828125 136.765625 C 351.757812 115.160156 343.753906 96.058594 329.347656 81.65625 Z M 184.679688 76.878906 C 161.503906 88.464844 138.5625 104.867188 117.726562 125.703125 C 113.15625 130.277344 108.800781 134.953125 104.660156 139.710938 C 120.515625 126.179688 139.351562 114.117188 160.554688 104.503906 C 184.90625 93.46875 209.625 86.902344 232.984375 84.53125 C 220.28125 79.441406 206.425781 76.640625 191.925781 76.640625 C 189.492188 76.640625 187.078125 76.726562 184.679688 76.878906 " fill-opacity="1" fill-rule="nonzero"/></g><path fill="#464646" d="M 26.832031 195.195312 C 27.730469 202.378906 29.65625 209.363281 32.679688 216.035156 C 57.003906 269.691406 143.089844 283.105469 224.960938 245.992188 C 255.503906 232.148438 281.136719 213.226562 300.019531 192.160156 C 289.679688 208.890625 276.832031 225.230469 261.617188 240.449219 C 191.011719 311.050781 96.265625 330.777344 49.992188 284.5 C 28.351562 262.863281 21.148438 230.617188 26.832031 195.195312 " fill-opacity="1" fill-rule="nonzero"/><path fill="#798391" d="M 84.84375 246.089844 C 85.136719 246.628906 85.433594 247.167969 85.734375 247.707031 C 85.429688 247.171875 85.136719 246.628906 84.84375 246.089844 " fill-opacity="1" fill-rule="nonzero"/><path fill="#798391" d="M 335.140625 187.445312 C 335.140625 117.089844 284.414062 58.589844 217.535156 46.519531 C 213.199219 46.101562 208.804688 45.863281 204.351562 45.863281 C 129.371094 45.863281 68.582031 106.652344 68.582031 181.632812 C 68.582031 198.789062 71.777344 215.191406 77.582031 230.304688 C 72.582031 216.96875 69.84375 202.527344 69.84375 187.445312 C 69.84375 120.019531 124.5 65.359375 191.925781 65.359375 C 259.355469 65.359375 314.007812 120.019531 314.007812 187.445312 C 314.007812 254.871094 259.355469 309.53125 191.925781 309.53125 C 187.285156 309.53125 182.710938 309.261719 178.207031 308.757812 C 178.136719 308.785156 178.070312 308.804688 178.003906 308.832031 C 191.578125 314.046875 206.3125 316.925781 221.71875 316.925781 C 239.804688 316.925781 256.96875 312.984375 272.402344 305.921875 C 310.269531 280.152344 335.140625 236.703125 335.140625 187.445312 " fill-opacity="1" fill-rule="nonzero"/><g clip-path="url(#d5fa3886e8)"><path fill="#0b0b0b" d="M 204.351562 45.863281 C 208.804688 45.863281 213.199219 46.101562 217.535156 46.519531 C 209.226562 45.015625 200.667969 44.234375 191.925781 44.234375 C 112.832031 44.234375 48.710938 108.351562 48.710938 187.445312 C 48.710938 201.726562 50.8125 215.511719 54.703125 228.527344 C 62.734375 236.851562 73.332031 243.457031 85.933594 248.066406 C 85.867188 247.949219 85.800781 247.828125 85.734375 247.707031 C 85.433594 247.167969 85.136719 246.628906 84.84375 246.089844 C 82.066406 241.035156 79.628906 235.761719 77.582031 230.304688 C 71.777344 215.191406 68.582031 198.789062 68.582031 181.632812 C 68.582031 106.652344 129.371094 45.863281 204.351562 45.863281 " fill-opacity="1" fill-rule="nonzero"/></g></svg>